<svg width="57" height="16" viewBox="0 0 57 16" fill="current" xmlns="http://www.w3.org/2000/svg">
<path d="M10.0195 13H8.0166L3.10156 5.03613H3.04688L3.08105 5.48047C3.14486 6.32812 3.17676 7.10286 3.17676 7.80469V13H1.69336V3.00586H3.67578L8.57715 10.9287H8.61816C8.60905 10.8239 8.59082 10.4434 8.56348 9.78711C8.53613 9.1263 8.52246 8.61133 8.52246 8.24219V3.00586H10.0195V13ZM15.7891 13.1367C14.6133 13.1367 13.6927 12.7949 13.0273 12.1113C12.3665 11.4232 12.0361 10.4775 12.0361 9.27441C12.0361 8.03939 12.3438 7.06868 12.959 6.3623C13.5742 5.65592 14.4196 5.30273 15.4951 5.30273C16.4932 5.30273 17.2816 5.60579 17.8604 6.21191C18.4391 6.81803 18.7285 7.65202 18.7285 8.71387V9.58203H13.6904C13.7132 10.3158 13.9115 10.8809 14.2852 11.2773C14.6589 11.6693 15.1852 11.8652 15.8643 11.8652C16.3109 11.8652 16.7256 11.8242 17.1084 11.7422C17.4958 11.6556 17.9105 11.5143 18.3525 11.3184V12.624C17.9606 12.8109 17.5641 12.943 17.1631 13.0205C16.762 13.098 16.304 13.1367 15.7891 13.1367ZM15.4951 6.51953C14.9847 6.51953 14.5745 6.68132 14.2646 7.00488C13.9593 7.32845 13.777 7.80013 13.7178 8.41992H17.1494C17.1403 7.79557 16.9899 7.32389 16.6982 7.00488C16.4066 6.68132 16.0055 6.51953 15.4951 6.51953ZM22.2354 9.1377L19.6992 5.43945H21.5312L23.2539 8.08496L24.9902 5.43945H26.8086L24.2656 9.1377L26.9385 13H25.1201L23.2539 10.1699L21.3945 13H19.5762L22.2354 9.1377ZM31.0811 11.8379C31.473 11.8379 31.8649 11.7764 32.2568 11.6533V12.8633C32.0791 12.9408 31.849 13.0046 31.5664 13.0547C31.2884 13.1094 30.999 13.1367 30.6982 13.1367C29.1761 13.1367 28.415 12.3346 28.415 10.7305V6.65625H27.3828V5.94531L28.4902 5.35742L29.0371 3.75781H30.0283V5.43945H32.1816V6.65625H30.0283V10.7031C30.0283 11.0905 30.124 11.3776 30.3154 11.5645C30.5114 11.7467 30.7666 11.8379 31.0811 11.8379Z" fill="current"/>
<path fill-rule="evenodd" clip-rule="evenodd" d="M56.9332 7.66719C56.8895 7.56209 56.8282 7.46575 56.7407 7.38692L50.6143 1.25618C50.2729 0.914606 49.7216 0.914606 49.3802 1.25618C49.0389 1.59775 49.0389 2.14951 49.3802 2.49108L54.01 7.12418L43.8752 7.12418C43.3938 7.12418 43 7.5183 43 8C43 8.4817 43.3938 8.87582 43.8752 8.87582L54.0188 8.87582L49.389 13.5089C49.0477 13.8505 49.0477 14.4023 49.389 14.7438C49.7303 15.0854 50.2817 15.0854 50.623 14.7438L56.7494 8.61307C56.8282 8.53425 56.8895 8.43791 56.942 8.33281C57.0207 8.12261 57.0207 7.87738 56.9332 7.66719Z" fill="current"/>
</svg>
