<svg width="57" height="16" viewBox="0 0 57 16" fill="current" xmlns="http://www.w3.org/2000/svg">
<path d="M34.3291 6.02734C34.3291 7.07096 33.9873 7.87077 33.3037 8.42676C32.6201 8.98275 31.6471 9.26074 30.3848 9.26074H29.3457V13H27.7119V3.00586H30.5898C31.8385 3.00586 32.7728 3.26107 33.3926 3.77148C34.0169 4.2819 34.3291 5.03385 34.3291 6.02734ZM29.3457 7.88672H30.2139C31.0524 7.88672 31.6676 7.74089 32.0596 7.44922C32.4515 7.15755 32.6475 6.70182 32.6475 6.08203C32.6475 5.50781 32.472 5.07943 32.1211 4.79688C31.7702 4.51432 31.2233 4.37305 30.4805 4.37305H29.3457V7.88672ZM39.9893 5.30273C40.3128 5.30273 40.5794 5.32552 40.7891 5.37109L40.6318 6.86816C40.404 6.81348 40.167 6.78613 39.9209 6.78613C39.2783 6.78613 38.7565 6.99577 38.3555 7.41504C37.959 7.83431 37.7607 8.37891 37.7607 9.04883V13H36.1543V5.43945H37.4121L37.624 6.77246H37.7061C37.9567 6.32129 38.2826 5.96354 38.6836 5.69922C39.0892 5.4349 39.5244 5.30273 39.9893 5.30273ZM45.499 13.1367C44.3232 13.1367 43.4027 12.7949 42.7373 12.1113C42.0765 11.4232 41.7461 10.4775 41.7461 9.27441C41.7461 8.03939 42.0537 7.06868 42.6689 6.3623C43.2842 5.65592 44.1296 5.30273 45.2051 5.30273C46.2031 5.30273 46.9915 5.60579 47.5703 6.21191C48.1491 6.81803 48.4385 7.65202 48.4385 8.71387V9.58203H43.4004C43.4232 10.3158 43.6214 10.8809 43.9951 11.2773C44.3688 11.6693 44.8952 11.8652 45.5742 11.8652C46.0208 11.8652 46.4355 11.8242 46.8184 11.7422C47.2057 11.6556 47.6204 11.5143 48.0625 11.3184V12.624C47.6706 12.8109 47.2741 12.943 46.873 13.0205C46.472 13.098 46.014 13.1367 45.499 13.1367ZM45.2051 6.51953C44.6947 6.51953 44.2845 6.68132 43.9746 7.00488C43.6693 7.32845 43.487 7.80013 43.4277 8.41992H46.8594C46.8503 7.79557 46.6999 7.32389 46.4082 7.00488C46.1165 6.68132 45.7155 6.51953 45.2051 6.51953ZM51.9863 13L49.1152 5.43945H50.8105L52.3486 9.83496C52.613 10.5732 52.7725 11.1702 52.8271 11.626H52.8818C52.9229 11.2979 53.0824 10.7008 53.3604 9.83496L54.8984 5.43945H56.6074L53.7227 13H51.9863Z" fill="current"/>
<path fill-rule="evenodd" clip-rule="evenodd" d="M0.0667785 8.33281C0.110539 8.43791 0.171804 8.53425 0.259324 8.61308L6.38574 14.7438C6.72707 15.0854 7.27844 15.0854 7.61977 14.7438C7.9611 14.4023 7.9611 13.8505 7.61977 13.5089L2.98995 8.87582L13.1248 8.87582C13.6062 8.87582 14 8.4817 14 8C14 7.5183 13.6062 7.12418 13.1248 7.12418L2.9812 7.12418L7.61102 2.49109C7.95235 2.14952 7.95235 1.59775 7.61102 1.25618C7.26969 0.914608 6.71832 0.914608 6.37699 1.25618L0.25057 7.38693C0.171802 7.46575 0.110537 7.56209 0.0580246 7.66719C-0.0207436 7.87739 -0.0207417 8.12262 0.0667785 8.33281Z" fill="current"/>
</svg>
